<svg xmlns="http://www.w3.org/2000/svg" xml:space="preserve" width="2048" height="2048" style="shape-rendering:geometricPrecision;text-rendering:geometricPrecision;image-rendering:optimizeQuality;fill-rule:evenodd;clip-rule:evenodd"><defs><clipPath id="id0"><path d="M1024-.001c565.541 0 1024 458.46 1024 1024s-458.461 1024-1024 1024c-565.541 0-1024-458.461-1024-1024 0-565.541 458.461-1024 1024-1024z"/></clipPath><style>.fil1{fill:#1e88e5}.fil4{fill:#c00806}.fil3{fill:#d50000}</style></defs><g id="Layer_x0020_1"><path d="M1024-.001c565.541 0 1024 458.46 1024 1024s-458.461 1024-1024 1024c-565.541 0-1024-458.461-1024-1024 0-565.541 458.461-1024 1024-1024z" style="fill:#42a5f5"/><g style="clip-path:url(#id0)"><g id="_466411336"><path id="_4608916321" class="fil1" d="M1094 463.999 2229.88 1599.88v490L1094 954.001z"/><path id="_460891608" class="fil1" d="M1584 954.001 2719.88 2089.88v70L1584 1024z"/><path id="_460889088" class="fil1" d="m1584 1024 1135.88 1135.88v70L1584 1094z"/><path id="_460888968" class="fil1" d="m1584 1094 1135.88 1135.88h-490L1094 1094z"/><path id="_460888752" class="fil1" d="m954 1094 1135.88 1135.88h-490L463.999 1094z"/><path id="_460888536" class="fil1" d="m1094 1584 1135.88 1135.88h-70L1024 1584z"/><path id="_460888320" class="fil1" d="m1024 1584 1135.88 1135.88h-70L954 1584z"/><path id="_460888104" class="fil1" d="m1094 1094 1135.88 1135.88v490L1094 1584z"/><path id="_466411120" class="fil1" d="M1094 463.999v490.002h490V1094h-490v490H954v-490H463.999V954.001L954 954V463.999h70z"/></g></g><path d="M1024-.001c565.541 0 1024 458.46 1024 1024s-458.461 1024-1024 1024c-565.541 0-1024-458.461-1024-1024 0-565.541 458.461-1024 1024-1024z" style="fill:none"/><path class="fil3" transform="matrix(0 -.36458 .85366 0 463.999 1094)" d="M0 0h384v1312H0z"/><path class="fil3" d="M954 463.999h139.999v1120H954z"/><path class="fil4" d="M954 463.999h70V1024l-70-70V463.999zM1024 1024v560.001h-70V1094l70-70z"/><path class="fil4" d="M463.999 1094v-70h558.362L954 1094H463.999zM1024 1024h560.001v70h-490.002l-70-70z"/></g></svg>
